<svg height="511pt" viewBox="-54 1 511 511.999" width="511pt" xmlns="http://www.w3.org/2000/svg"><path d="m59.695312 274.359375h2.140626v2.136719c0 4.144531 3.355468 7.5 7.5 7.5 4.140624 0 7.5-3.355469 7.5-7.5v-2.136719h2.136718c4.144532 0 7.5-3.359375 7.5-7.5 0-4.144531-3.355468-7.5-7.5-7.5h-2.136718v-2.140625c0-4.144531-3.359376-7.5-7.5-7.5-4.144532 0-7.5 3.355469-7.5 7.5v2.140625h-2.140626c-4.140624 0-7.5 3.355469-7.5 7.5 0 4.140625 3.359376 7.5 7.5 7.5zm0 0"/><path d="m102.875 264.71875h15.644531c4.144531 0 7.5-3.355469 7.5-7.5 0-4.140625-3.355469-7.5-7.5-7.5h-15.644531c-4.140625 0-7.5 3.359375-7.5 7.5 0 4.144531 3.359375 7.5 7.5 7.5zm0 0"/><path d="m102.875 283.15625h38.554688c4.140624 0 7.5-3.355469 7.5-7.5 0-4.140625-3.359376-7.5-7.5-7.5h-38.554688c-4.140625 0-7.5 3.359375-7.5 7.5 0 4.144531 3.359375 7.5 7.5 7.5zm0 0"/><path d="m144.78125 292.925781h-85.085938c-4.140624 0-7.5 3.359375-7.5 7.5 0 4.144531 3.359376 7.5 7.5 7.5h85.085938c4.140625 0 7.5-3.355469 7.5-7.5 0-4.140625-3.359375-7.5-7.5-7.5zm0 0"/><path d="m144.78125 311.972656h-85.085938c-4.140624 0-7.5 3.359375-7.5 7.5 0 4.144532 3.359376 7.5 7.5 7.5h85.085938c4.140625 0 7.5-3.355468 7.5-7.5 0-4.140625-3.359375-7.5-7.5-7.5zm0 0"/><path d="m364.253906 107.46875c-20.8125-37.140625-45.027344-73.367188-61.675781-97.21875-4.484375-6.417969-11.832031-10.25-19.65625-10.25-7.828125 0-15.175781 3.832031-19.65625 10.25-7.84375 11.238281-17.371094 25.222656-27.425781 40.753906-33.023438-4.199218-63.421875-6.335937-90.378906-6.335937-39.804688 0-84.421876 5.410156-114.84375 9.949219-17.167969 2.5625-30.117188 17.578124-30.117188 34.933593v248.359375c0 4.144532 3.359375 7.5 7.5 7.5 4.144531 0 7.5-3.355468 7.5-7.5v-248.359375c0-10.148437 7.289062-18.597656 17.332031-20.097656 24.492188-3.652344 71.695313-9.785156 112.628907-9.785156 24.035156 0 52.015624 1.847656 81.4375 5.351562-2.128907 3.382813-4.265626 6.820313-6.398438 10.300781-27.488281-3.109374-52.726562-4.6875-75.039062-4.6875-10.742188 0-22.738282.4375-35.660157 1.304688-4.132812.273438-7.257812 3.851562-6.980469 7.980469.277344 4.136719 3.882813 7.265625 7.984376 6.984375 12.589843-.84375 24.25-1.273438 34.65625-1.273438 19.894531 0 42.230468 1.296875 66.5 3.84375-3.515626 5.941406-6.992188 11.957032-10.375 17.996094-14.164063 25.273438-24.566407 47.15625-31.160157 65.5h-128.964843v-78.542969c9.125-1.3125 21.589843-2.988281 35.480468-4.503906 4.117188-.449219 7.089844-4.152344 6.640625-8.269531-.449219-4.117188-4.132812-7.085938-8.269531-6.644532-16.761719 1.832032-31.480469 3.886719-40.875 5.289063-4.546875.679687-7.976562 4.65625-7.976562 9.25v310.609375c0 3.390625 2.273437 6.355469 5.546874 7.238281l25.523438 6.886719v22.726562c0 4.144532 3.359375 7.5 7.5 7.5h19.246094v10.960938h-35.933594c-.976562 0-1.773438-.792969-1.773438-1.769531v-25.273438c0-3.390625-2.269531-6.359375-5.542968-7.242187l-24.21875-6.535156c-.769532-.207032-1.308594-.910157-1.308594-1.707032v-40.851562c0-4.144532-3.355469-7.5-7.5-7.5s-7.5 3.355468-7.5 7.5v40.851562c0 7.5625 5.101562 14.222656 12.402344 16.191406l18.667968 5.035157v19.53125c0 9.246093 7.523438 16.769531 16.773438 16.769531h35.929688v24.757812c0 9.25 7.527343 16.773438 16.773437 16.773438h5.316406c9.246094 0 16.769531-7.523438 16.769531-16.773438v-24.757812h44.648438v24.757812c0 9.25 7.523438 16.773438 16.773438 16.773438h5.3125c9.25 0 16.773437-7.523438 16.773437-16.773438v-24.757812h35.933594c9.246093 0 16.769531-7.523438 16.769531-16.769531v-19.53125l18.667969-5.035157c7.304687-1.96875 12.402343-8.628906 12.402343-16.191406v-79.875c26.125-1.625 51.128907-11.691406 71.101563-28.769531 3.148437-2.691406 3.519531-7.429687.824219-10.574219-2.691406-3.148437-7.425782-3.519531-10.574219-.828125-19.160156 16.386719-43.613281 25.410157-68.851563 25.410157-58.453124 0-106.007812-47.558594-106.007812-106.011719 0-48.371094 75.507812-160.304688 98.652344-193.457031 1.703125-2.4375 4.382812-3.835938 7.355468-3.835938 2.972657 0 5.652344 1.398438 7.355469 3.835938 23.144531 33.152343 98.652344 145.085937 98.652344 193.457031 0 20.015625-5.609375 39.511719-16.226563 56.378906-2.207031 3.503906-1.152343 8.136719 2.355469 10.34375 3.503907 2.207031 8.132813 1.152344 10.339844-2.355469 12.125-19.261718 18.53125-41.519531 18.53125-64.367187.007813-22.582031-13.339844-57.851563-39.667969-104.824219zm-198.585937 80.5c-2.496094 9.28125-3.757813 17.402344-3.757813 24.324219 0 1.335937.027344 2.664062.070313 3.984375h-120.519531v-28.308594zm-42.535157 267.5v-10.960938h44.652344v10.960938zm68.511719-18.460938v58.222657c0 .976562-.796875 1.769531-1.773437 1.769531h-5.3125c-.976563 0-1.773438-.796875-1.773438-1.769531v-58.222657c0-4.140624-3.355468-7.5-7.5-7.5h-59.648437c-4.144531 0-7.5 3.359376-7.5 7.5v58.222657c0 .976562-.796875 1.769531-1.769531 1.769531h-5.316407c-.976562 0-1.769531-.796875-1.769531-1.769531v-58.222657c0-4.140624-3.359375-7.5-7.5-7.5h-19.246094v-20.96875c0-3.390624-2.273437-6.355468-5.546875-7.238281l-25.523437-6.890625v-33.996094h207.996094v33.996094l-25.523438 6.890625c-3.273438.882813-5.546875 3.851563-5.546875 7.238281v20.96875h-19.242187c-4.148438 0-7.503907 3.359376-7.503907 7.5zm82.464844-22.359374-24.214844 6.535156c-3.273437.882812-5.546875 3.851562-5.546875 7.242187v25.273438c0 .976562-.792968 1.769531-1.769531 1.769531h-35.933594v-10.960938h19.242188c4.144531 0 7.5-3.355468 7.5-7.5v-22.722656l25.523437-6.886718c3.273438-.882813 5.546875-3.851563 5.546875-7.242188v-68.257812c3.605469.554687 7.261719.9375 10.960938 1.164062v79.875c.003906.800781-.535157 1.503906-1.308594 1.710938zm-24.652344-86.054688v16.820312h-207.996093v-114.136718h121.941406c7.378906 46.621094 41.472656 84.472656 86.054687 97.316406zm0 0"/><path d="m202.847656 209.632812c0 44.152344 35.921875 80.070313 80.070313 80.070313 44.152343 0 80.074219-35.917969 80.074219-80.070313 0-44.152343-35.921876-80.070312-80.074219-80.070312-44.148438 0-80.070313 35.917969-80.070313 80.070312zm145.144532 0c0 35.878907-29.191407 65.070313-65.070313 65.070313-35.882813 0-65.074219-29.191406-65.074219-65.070313 0-35.882812 29.191406-65.070312 65.074219-65.070312 35.878906 0 65.070313 29.1875 65.070313 65.070312zm0 0"/><path d="m254.578125 190.128906v39.007813c0 11.65625 9.480469 21.136719 21.136719 21.136719h14.410156c11.65625 0 21.136719-9.480469 21.136719-21.136719v-39.007813c0-11.652344-9.480469-21.136718-21.136719-21.136718h-14.410156c-11.65625 0-21.136719 9.484374-21.136719 21.136718zm41.683594 0v39.007813c0 3.382812-2.753907 6.136719-6.136719 6.136719h-14.410156c-3.382813 0-6.136719-2.753907-6.136719-6.136719v-39.007813c0-3.382812 2.753906-6.136718 6.136719-6.136718h14.410156c3.382812 0 6.136719 2.753906 6.136719 6.136718zm0 0"/></svg>