<svg height="512pt" viewBox="0 0 512 511" width="512pt" xmlns="http://www.w3.org/2000/svg"><path d="m330.757812 301.28125v-92.507812c0-50.804688-61.910156-76.625-97.960937-40.574219l-37.539063 37.535156-29.757812-14.878906-52.488281-69.980469c2.585937.34375 5.222656.535156 7.898437.535156 33.0625 0 59.957032-26.894531 59.957032-59.953125 0-32.871093-26.5625-60.957031-59.957032-60.957031-33.398437 0-59.953125 28.089844-59.953125 60.957031 0 12.714844 3.992188 24.511719 10.769531 34.226563-18.128906.078125-34.335937 10.527344-41.765624 27.621094-19.878907 45.753906-29.960938 92.953124-29.960938 140.28125v248.539062h90.933594s.28125-262.660156.835937-269.683594l14.53125 19.371094 64.339844 32.171875c-12.078125 8.726563-22.484375 19.652344-30.652344 32.3125-12.480469 19.351563-19.078125 41.796875-19.078125 64.917969 0 66.671875 53.792969 120.910156 119.914063 120.910156 66.121093 0 119.914062-54.238281 119.914062-120.910156h14.464844l51.699219 121.011718 85.097656-28.367187-73.5625-182.578125zm-119.910156-68.738281 43.148438-43.148438c17.222656-17.222656 46.785156-4.871093 46.785156 19.378907v78.589843c-9.367188-5.417969-19.449219-9.558593-29.980469-12.273437v-48.753906h-29.976562v104.921874h-29.976563zm-89.9375-202.066407c16.25 0 29.980469 14.1875 29.980469 30.980469 0 16.527344-13.449219 29.976563-29.980469 29.976563-16.527344 0-29.976562-13.449219-29.976562-29.976563 0-16.792969 13.726562-30.980469 29.976562-30.980469zm-46.457031 138.90625-6.921875 32.136719c-4.363281 20.25-6.574219 41.132813-6.574219 62.066407v218.5625h-30.980469v-218.5625c0-43.195313 9.246094-86.371094 27.480469-128.332032 4.730469-10.890625 19.050781-13.085937 26.121094-3.660156l62.1875 82.910156 35.101563 17.550782v33.527343l-54.832032-27.417969zm166.371094 312.765626c-49.589844 0-89.933594-40.792969-89.933594-90.933594 0-25.808594 11.261719-50.140625 29.976563-66.984375v37.007812h89.933593v-54.808593c35.144531 12.492187 59.957031 46.3125 59.957031 84.785156 0 50.140625-40.34375 90.933594-89.933593 90.933594zm202.792969-7.09375-48.625-113.816407h-38.066407c-2.707031-10.496093-6.828125-20.582031-12.253906-29.980469h73.523437l54.085938 134.242188zm0 0"/><path d="m300.78125 151.390625c33.058594 0 59.957031-26.898437 59.957031-59.957031s-26.898437-59.957032-59.957031-59.957032c-33.0625 0-59.957031 26.898438-59.957031 59.957032s26.894531 59.957031 59.957031 59.957031zm0-89.933594c16.527344 0 29.976562 13.445313 29.976562 29.976563s-13.449218 29.976562-29.976562 29.976562c-16.53125 0-29.980469-13.445312-29.980469-29.976562s13.449219-29.976563 29.980469-29.976563zm0 0"/></svg>