<?xml version="1.0" encoding="iso-8859-1"?>
<!-- Generator: Adobe Illustrator 19.0.0, SVG Export Plug-In . SVG Version: 6.00 Build 0)  -->
<svg version="1.1" id="Capa_1" xmlns="http://www.w3.org/2000/svg" xmlns:xlink="http://www.w3.org/1999/xlink" x="0px" y="0px"
	 viewBox="0 0 512 512" style="enable-background:new 0 0 512 512;" xml:space="preserve">
<g>
	<g>
		<g>
			<path d="M486.4,170.667V153.6c-0.02-18.843-15.29-34.113-34.133-34.133h-34.133V76.8c-0.028-23.553-19.114-42.639-42.667-42.667
				H136.533C112.981,34.161,93.894,53.247,93.867,76.8v42.667H59.733C40.89,119.487,25.62,134.757,25.6,153.6v17.067
				c-14.132,0.015-25.585,11.468-25.6,25.6v17.067c0.038,11.088,7.225,20.885,17.79,24.252l21.66,202.161
				c2.288,21.699,20.606,38.158,42.425,38.121h348.25c21.819,0.037,40.137-16.422,42.425-38.121l21.66-202.161
				c10.565-3.367,17.751-13.164,17.79-24.252v-17.067C511.985,182.135,500.532,170.682,486.4,170.667z M110.933,76.8
				c0.015-14.132,11.468-25.585,25.6-25.6h238.933c14.132,0.015,25.585,11.468,25.6,25.6v42.667H384v-25.6
				c-0.015-14.132-11.468-25.585-25.6-25.6H153.6c-14.132,0.015-25.585,11.468-25.6,25.6v25.6h-17.067V76.8z M366.933,93.867v25.6
				H145.067v-25.6c0.005-4.711,3.823-8.529,8.533-8.533h204.8C363.111,85.338,366.929,89.156,366.933,93.867z M42.667,153.6
				c0.011-9.421,7.645-17.056,17.067-17.067h392.533c9.421,0.011,17.056,7.645,17.067,17.067v17.067H42.667V153.6z M455.583,437.929
				c-1.377,13.018-12.367,22.892-25.458,22.871H81.875c-13.091,0.021-24.082-9.852-25.458-22.871L35.1,238.933h441.8
				L455.583,437.929z M494.933,213.333c-0.005,4.711-3.822,8.529-8.533,8.533H25.6c-4.711-0.005-8.529-3.822-8.533-8.533v-17.067
				c0.005-4.711,3.822-8.529,8.533-8.533h460.8c4.711,0.005,8.529,3.822,8.533,8.533V213.333z"/>
			<path d="M196.267,375.467H230.4V409.6c0.011,9.421,7.645,17.056,17.067,17.067h17.067c9.421-0.011,17.056-7.646,17.067-17.067
				v-34.133h34.133c9.421-0.011,17.056-7.646,17.067-17.067v-17.067c-0.011-9.421-7.645-17.056-17.067-17.067H281.6v-34.133
				c-0.011-9.421-7.646-17.056-17.067-17.067h-17.067c-9.421,0.011-17.056,7.646-17.067,17.067v34.133h-34.133
				c-9.421,0.011-17.056,7.646-17.067,17.067V358.4C179.211,367.821,186.845,375.456,196.267,375.467z M196.267,341.333H230.4
				c9.421-0.011,17.056-7.645,17.067-17.067v-34.133h17.067v34.133c0.011,9.421,7.646,17.056,17.067,17.067h34.133V358.4H281.6
				c-9.421,0.011-17.056,7.645-17.067,17.067V409.6h-17.067v-34.133c-0.011-9.421-7.645-17.056-17.067-17.067h-34.133V341.333z"/>
			<path d="M93.867,281.6c2.263,0.001,4.434-0.898,6.035-2.499c1.6-1.6,2.499-3.771,2.499-6.035v-8.533
				c0-4.713-3.821-8.533-8.533-8.533c-4.713,0-8.533,3.82-8.533,8.533v8.533c-0.001,2.263,0.898,4.434,2.499,6.035
				C89.432,280.702,91.603,281.601,93.867,281.6z"/>
			<path d="M93.867,298.667c-2.263-0.001-4.434,0.898-6.035,2.499c-1.6,1.6-2.499,3.771-2.499,6.035v8.533
				c0,4.713,3.82,8.533,8.533,8.533c4.713,0,8.533-3.82,8.533-8.533V307.2c0.001-2.263-0.898-4.434-2.499-6.035
				C98.301,299.565,96.13,298.666,93.867,298.667z"/>
			<path d="M68.267,298.667H76.8c4.713,0,8.533-3.821,8.533-8.533c0-4.713-3.82-8.533-8.533-8.533h-8.533
				c-4.713,0-8.533,3.821-8.533,8.533C59.733,294.846,63.554,298.667,68.267,298.667z"/>
			<path d="M110.933,298.667h8.533c4.713,0,8.533-3.821,8.533-8.533c0-4.713-3.82-8.533-8.533-8.533h-8.533
				c-4.713,0-8.533,3.821-8.533,8.533C102.4,294.846,106.221,298.667,110.933,298.667z"/>
			<path d="M409.6,401.067c2.263,0.001,4.434-0.898,6.035-2.499c1.6-1.6,2.499-3.771,2.499-6.035V384
				c0-4.713-3.82-8.533-8.533-8.533s-8.533,3.82-8.533,8.533v8.533c-0.001,2.263,0.898,4.434,2.499,6.035
				C405.166,400.168,407.337,401.067,409.6,401.067z"/>
			<path d="M409.6,418.133c-2.263-0.001-4.434,0.898-6.035,2.499c-1.6,1.6-2.499,3.771-2.499,6.035v8.533
				c0,4.713,3.82,8.533,8.533,8.533s8.533-3.82,8.533-8.533v-8.533c0.001-2.263-0.898-4.434-2.499-6.035
				C414.034,419.032,411.863,418.133,409.6,418.133z"/>
			<path d="M384,418.133h8.533c4.713,0,8.533-3.821,8.533-8.533c0-4.713-3.821-8.533-8.533-8.533H384
				c-4.713,0-8.533,3.821-8.533,8.533C375.467,414.313,379.287,418.133,384,418.133z"/>
			<path d="M426.667,418.133h8.533c4.713,0,8.533-3.821,8.533-8.533c0-4.713-3.82-8.533-8.533-8.533h-8.533
				c-4.713,0-8.533,3.821-8.533,8.533C418.133,414.313,421.954,418.133,426.667,418.133z"/>
		</g>
	</g>
</g>
<g>
</g>
<g>
</g>
<g>
</g>
<g>
</g>
<g>
</g>
<g>
</g>
<g>
</g>
<g>
</g>
<g>
</g>
<g>
</g>
<g>
</g>
<g>
</g>
<g>
</g>
<g>
</g>
<g>
</g>
</svg>
