<svg height="512pt" viewBox="-10 0 512 512.001" width="512pt" xmlns="http://www.w3.org/2000/svg"><path d="m331.617188 229.320312h29.894531c5.988281 0 10.863281-4.871093 10.863281-10.863281v-45.03125h45.03125c5.988281 0 10.863281-4.871093 10.863281-10.863281v-29.894531c0-5.992188-4.875-10.863281-10.863281-10.863281h-45.03125v-45.03125c0-5.992188-4.875-10.867188-10.863281-10.867188h-29.894531c-5.992188 0-10.867188 4.875-10.867188 10.867188v45.03125h-45.03125c-5.988281 0-10.863281 4.871093-10.863281 10.863281v29.894531c0 5.988281 4.875 10.863281 10.863281 10.863281h45.03125v45.03125c0 5.992188 4.875 10.863281 10.867188 10.863281zm-51.761719-70.894531v-21.621093h45.03125c5.992187 0 10.863281-4.875 10.863281-10.863282v-45.035156h21.621094v45.035156c0 5.988282 4.875 10.863282 10.867187 10.863282h45.027344v21.617187h-45.027344c-5.992187 0-10.867187 4.875-10.867187 10.867187v45.03125h-21.621094v-45.03125c0-5.992187-4.871094-10.867187-10.863281-10.867187h-45.03125zm0 0"/><path d="m478.148438 131.039062c.511718 4.113282 4.257812 7.023438 8.371093 6.515626 4.109375-.511719 7.027344-4.257813 6.511719-8.367188-9.175781-73.648438-72.144531-129.1875-146.46875-129.1875-54.496094 0-102.183594 29.6875-127.757812 73.734375-90.671876-10.320313-169.355469 60.804687-169.355469 151.011719v21.480468c0 21.328126-8.308594 41.386719-23.390625 56.46875l-19.898438 19.894532c-13.152344 13.15625-3.855468 35.640625 14.765625 35.640625h28.523438v24.457031c0 40.914062 33.28125 74.195312 74.195312 74.195312 10.164063 0 18.433594 8.269532 18.433594 18.4375v21.308594c0 8.476563 6.898437 15.371094 15.375 15.371094h40.941406c4.144531 0 7.503907-3.355469 7.503907-7.5s-3.359376-7.5-7.503907-7.5h-40.941406c-.203125 0-.371094-.167969-.371094-.371094v-21.308594c0-18.4375-15-33.4375-33.4375-33.4375-32.640625 0-59.195312-26.554687-59.195312-59.195312v-24.546875c0-8.222656-6.691407-14.914063-14.910157-14.914063h-28.613281c-5.230469 0-7.859375-6.328124-4.15625-10.027343l19.898438-19.898438c17.917969-17.914062 27.78125-41.738281 27.78125-67.074219v-21.480468c0-79.246094 67.46875-142.425782 147.003906-136.640625-40.832031 92.800781 22.539063 201.148437 126.820313 206.886719-1.625 30.777343-13.570313 60.132812-34.050782 83.335937-14.953125 16.945313-23.191406 39.511719-23.191406 63.535156v54.648438c0 .269531-.21875.488281-.488281.488281h-47.140625c-4.144532 0-7.5 3.355469-7.5 7.5 0 4.140625 3.355468 7.5 7.5 7.5h47.140625c8.539062 0 15.488281-6.949219 15.488281-15.488281v-54.648438c0-20.367187 6.902344-39.40625 19.441406-53.609375 22.875-25.925781 36.152344-58.761718 37.8125-93.179687 71.367188-3.230469 130.847656-57.613281 139.75-129.03125.511719-4.109375-2.40625-7.859375-6.515625-8.371094-4.109375-.503906-7.859375 2.40625-8.371093 6.515625-8.242188 66.152344-64.8125 116.039062-131.585938 116.039062-.183594 0-.367188-.003906-.550781-.007812-.003907 0-.011719 0-.015625 0-71.671875-.300781-130.191406-57.949219-132.003906-129.203125-1.890626-74.847656 58.492187-136.015625 132.570312-136.015625 66.773438 0 123.339844 49.886719 131.585938 116.039062zm0 0"/></svg>