<svg height="480pt" viewBox="0 0 480.13261 480" width="480pt" xmlns="http://www.w3.org/2000/svg"><path d="m336.363281 166.46875-124.449219 124.441406c-3.125 3.121094-3.128906 8.1875-.003906 11.3125 3.125 3.128906 8.191406 3.128906 11.316406.007813l124.449219-124.457031c2.125-2 2.996094-4.996094 2.269531-7.824219-.726562-2.828125-2.933593-5.035157-5.761718-5.757813-2.828125-.726562-5.824219.148438-7.820313 2.277344zm0 0"/><path d="m189.289062 313.539062-11.320312 11.328126c-3.121094 3.128906-3.121094 8.195312.003906 11.316406 3.128906 3.125 8.195313 3.121094 11.316406-.003906l11.3125-11.3125c3.03125-3.136719 2.988282-8.128907-.097656-11.214844-3.085937-3.085938-8.074218-3.128906-11.214844-.097656zm0 0"/><path d="m477.785156 92.917969-90.503906-90.503907c-1.5-1.503906-3.535156-2.3476558-5.660156-2.3476558-2.121094 0-4.160156.8437498-5.660156 2.3476558l-22.621094 22.628907c-3.125 3.125-3.125 8.191406 0 11.3125l16.964844 16.96875-45.253907 45.257812-11.320312-11.3125-11.304688-11.304687c-3.148437-2.957032-8.074219-2.878906-11.128906.171875-3.058594 3.054687-3.136719 7.980469-.183594 11.132812l5.65625 5.664063-197.992187 197.976562c-1.5 1.5-2.34375 3.535156-2.34375 5.660156 0 2.121094.84375 4.15625 2.34375 5.660157l17.601562 17.597656-25.359375 32.609375c-2.476562 3.183594-2.199219 7.714844.65625 10.566406l7.132813 7.136719c-.109375.097656-.261719.128906-.367188.238281l-96 96c-2.078125 2.011719-2.914062 4.984375-2.179687 7.78125.730469 2.796875 2.914062 4.980469 5.710937 5.714844 2.796875.730469 5.773438-.101562 7.78125-2.183594l96-96c.113282-.101562.144532-.253906.242188-.367187l7.132812 7.136719c2.855469 2.851562 7.386719 3.132812 10.570313.65625l32.605469-25.359376 17.601562 17.597657c1.5 1.503906 3.535156 2.347656 5.660156 2.347656s4.160156-.84375 5.660156-2.347656l198.046876-197.925781 5.664062 5.65625c2.007812 2.078124 4.984375 2.914062 7.78125 2.179687 2.796875-.730469 4.980469-2.914063 5.714844-5.714844.730468-2.796875-.105469-5.769531-2.183594-7.777343l-11.320312-11.304688-11.320313-11.3125 45.257813-45.253906 16.96875 16.964844c3.121093 3.125 8.1875 3.125 11.308593 0l22.632813-22.621094c1.507812-1.5 2.355468-3.539063 2.355468-5.664063s-.84375-4.164062-2.347656-5.664062zm-354.304687 279.261719-15.460938-15.464844 19.789063-25.445313 21.121094 21.117188zm60.152343-7.726563-16.972656-16.976563-33.9375-33.9375-16.976562-16.972656 28.289062-28.28125 11.296875 11.3125c2.007813 2.078125 4.980469 2.914063 7.777344 2.179688 2.796875-.730469 4.980469-2.914063 5.714844-5.710938.730469-2.796875-.101563-5.773437-2.183594-7.78125l-11.308594-11.3125 28.285157-28.289062 11.3125 11.3125c3.140624 3.03125 8.128906 2.988281 11.214843-.097656 3.085938-3.085938 3.128907-8.074219.097657-11.214844l-11.3125-11.3125 28.28125-28.285156 11.320312 11.320312c3.125 3.121094 8.191406 3.121094 11.316406-.003906 3.121094-3.128906 3.121094-8.195313-.003906-11.316406l-11.3125-11.3125 28.285156-28.28125 11.3125 11.3125c3.125 3.125 8.191406 3.128906 11.316406.003906s3.128907-8.191406.003907-11.316406l-11.320313-11.3125 33.945313-33.941407 11.3125 11.308594 45.253906 45.257813 11.3125 11.3125zm186.671876-220.625-33.933594-33.933594 45.246094-45.257812 33.945312 33.945312zm79.203124-33.933594-62.226562-62.226562-16.957031-16.960938 11.316406-11.320312 79.203125 79.203125zm0 0"/></svg>